<svg width="90" height="94" viewBox="0 0 90 94" fill="none" xmlns="http://www.w3.org/2000/svg">
<path fill-rule="evenodd" clip-rule="evenodd" d="M44.9951 12.005C21.2047 12.005 1.9187 31.2909 1.9187 55.0814C1.9187 71.0783 10.6386 85.0387 23.5845 92.4684H66.4057C79.3516 85.0387 88.0715 71.0783 88.0715 55.0814C88.0715 31.2909 68.7855 12.005 44.9951 12.005Z" fill="white"/>
<path fill-rule="evenodd" clip-rule="evenodd" d="M44.9951 12.9382C21.7201 12.9382 2.85202 31.8063 2.85202 55.0813C2.85202 70.642 11.2851 84.2343 23.8347 91.535H66.1554C78.705 84.2343 87.1381 70.642 87.1381 55.0813C87.1381 31.8063 68.2701 12.9382 44.9951 12.9382ZM0.985352 55.0813C0.985352 30.7754 20.6892 11.0716 44.9951 11.0716C69.301 11.0716 89.0048 30.7754 89.0048 55.0813C89.0048 71.426 80.0942 85.6885 66.8703 93.2778L66.6545 93.4017H23.3357L23.1199 93.2778C9.89594 85.6885 0.985352 71.426 0.985352 55.0813Z" fill="#212121"/>
<path d="M26.4493 83.2699C26.4705 81.0993 26.4867 75.9829 26.5225 73.8124C26.5225 73.4051 26.3778 73.2431 25.9861 73.1287C21.7239 71.8855 19.8091 69.3077 19.7993 64.8668C19.7993 58.8786 19.8091 52.892 19.7993 46.9037C19.7993 45.4741 20.0025 44.1051 20.6934 42.844C20.777 42.7051 20.825 42.5475 20.8333 42.3854C20.8415 42.2233 20.8096 42.0616 20.7405 41.9149C19.9928 39.9243 20.2951 38.0858 21.7288 36.5171C22.1482 36.0591 22.0377 35.7385 21.8491 35.2871C15.6884 20.4155 24.211 3.99974 39.8648 0.563164C54.0377 -2.54464 68.2204 7.57043 69.9744 22.0282C70.5336 26.6441 69.9841 31.0932 68.1473 35.3656C67.936 35.8563 67.9441 36.1606 68.3277 36.5891C69.6671 38.0825 69.9532 39.8408 69.3177 41.7268C69.1681 42.175 69.1421 42.5168 69.3794 42.9388C70.015 44.0707 70.2377 45.3138 70.2377 46.6044C70.2377 52.8593 70.2523 59.1141 70.2377 65.369C70.2247 69.275 67.9457 72.1554 64.142 73.1057C63.6543 73.2268 63.4999 73.4149 63.508 73.9072C63.5454 76.0467 63.5454 81.1304 63.5601 83.2699H61.5607C61.5607 82.8691 61.5607 79.5242 61.5525 79.1251C61.5639 78.4888 61.585 77.8541 61.585 77.2195C61.585 69.9963 61.585 62.772 61.585 55.5467C61.585 54.8581 61.6728 54.2054 62.5262 54.1874C63.3796 54.1694 63.5162 54.8106 63.5113 55.5058C63.5113 56.2418 63.5438 56.9779 63.4999 57.714C63.4674 58.275 63.6413 58.4713 64.2168 58.4484C65.3124 58.4059 66.4128 58.3879 67.5052 58.4484C68.2448 58.4925 68.3651 58.2047 68.3586 57.5389C68.3277 53.893 68.3391 50.2471 68.344 46.6028C68.344 44.9131 67.8124 43.459 66.5461 42.3124C65.0832 40.8762 65.0247 40.8779 63.6885 42.368C53.5468 53.6787 35.8302 53.4416 25.9048 41.8249C25.2806 41.0954 24.8498 41.0987 24.2142 41.6319C24.0143 41.7955 23.7526 41.9018 23.6486 42.1717C23.0699 42.4988 22.761 43.0533 22.4359 43.5915C21.4362 45.2419 21.7077 47.0787 21.6817 48.8715C21.6817 49.2886 21.9824 49.2329 22.2392 49.2346C23.1707 49.2346 24.1005 49.2477 25.0303 49.2346C25.9097 49.2215 26.3112 49.6353 26.277 50.5219C26.251 51.1565 26.277 51.7928 26.277 52.4274C26.277 54.0353 26.1307 54.1727 24.502 54.1809C23.6063 54.1809 22.4229 53.8652 21.8914 54.315C21.2737 54.8384 21.7174 56.0701 21.6931 56.991C21.6557 58.4304 21.6849 58.4746 23.0764 58.4173C24.2045 58.3699 25.3521 58.6692 26.4607 58.2357L26.5387 54.7616C26.8541 54.3314 27.2312 54.0157 27.8018 54.2169C28.3723 54.4181 28.465 54.9055 28.4422 55.4404C28.4422 55.6399 28.4422 55.8411 28.4422 56.0423L28.4764 79.1234C28.4682 79.5209 28.4617 82.8642 28.4536 83.2633L26.4493 83.2699ZM23.078 52.2017C23.5315 52.0938 24.3329 52.7088 24.3687 51.7584C24.4077 50.7002 23.5445 51.3348 23.0682 51.2285C22.5806 51.3364 21.7077 50.6838 21.7093 51.7192C21.7109 52.7546 22.6017 52.0594 23.078 52.2017ZM44.9901 43.9971C47.4284 44.0001 49.8433 43.5189 52.0965 42.581C54.3496 41.6431 56.3966 40.267 58.1203 38.5316C59.8439 36.7961 61.2102 34.7354 62.1409 32.4676C63.0715 30.1998 63.5483 27.7695 63.5438 25.316C63.5438 15.0864 55.1919 6.71334 44.9868 6.71497C34.8517 6.71497 26.4965 15.0913 26.4737 25.2685C26.4647 27.7224 26.9368 30.154 27.863 32.424C28.7892 34.6941 30.1512 36.758 31.8712 38.4977C33.5911 40.2373 35.6352 41.6185 37.8863 42.5622C40.1374 43.5059 42.5514 43.9935 44.9901 43.9971ZM45.0096 1.94695C44.0814 1.98948 43.1467 1.98457 42.2234 2.08762C41.3657 2.18576 40.5157 2.34316 39.6795 2.5587C30.0613 5.01222 23.4372 12.3532 21.9157 22.2196C21.5728 24.4507 21.6297 24.4981 23.8339 24.4556C24.4077 24.4441 24.6385 24.3051 24.6759 23.677C24.8333 21.2717 25.4445 18.9185 26.477 16.7434C30.8383 7.3627 41.1538 2.74189 51.0549 5.71884C58.8574 8.06605 64.7694 15.4397 65.3335 23.592C65.379 24.2626 65.6131 24.4278 66.2178 24.454C68.3115 24.539 68.3098 24.5554 68.1392 22.5255C68.1278 22.3914 68.1197 22.2572 68.1001 22.1247C66.4031 10.4754 56.6451 1.9584 45.0096 1.94695ZM45.5216 48.8028C46.1296 48.7553 47.2967 48.7226 48.4476 48.5623C58.4803 47.1671 66.7835 38.7613 68.0741 28.5595C68.4269 25.7691 68.6333 26.4331 66.1121 26.3154C65.5595 26.2892 65.3579 26.4789 65.3433 27.0465C65.2961 28.764 64.8962 30.4275 64.3338 32.0354C60.5951 42.6853 49.5822 48.2499 38.7871 44.9573C31.1357 42.6215 25.2026 35.1644 24.6856 27.1496C24.6353 26.3922 24.3362 26.3105 23.7103 26.3137C21.6362 26.3252 21.6362 26.3137 21.8897 28.3616C23.3218 39.9423 33.2798 48.7651 45.5216 48.8028ZM63.5162 65.8302C63.5162 67.3678 63.5617 68.9086 63.4999 70.4445C63.4642 71.3016 63.825 71.3016 64.4297 71.0775C65.2498 70.7931 65.9965 70.3281 66.6152 69.7163C67.2339 69.1044 67.709 68.3613 68.0059 67.5412C68.3944 66.5254 68.331 66.3962 67.2646 66.2899C66.6583 66.2342 66.3365 65.9153 66.3348 65.3346C66.3348 64.7867 66.6892 64.4922 67.2126 64.4203C67.4093 64.3925 67.6109 64.4121 67.8108 64.4023C68.0367 64.3925 68.3147 64.435 68.3375 64.098C68.3667 63.6957 68.0628 63.7071 67.7929 63.7055C67.2272 63.7055 66.6632 63.7055 66.0975 63.7055C65.4473 63.7055 64.9694 63.447 64.9873 62.7241C65.0051 62.0518 65.457 61.8244 66.0715 61.8326C66.5689 61.8326 67.0696 61.8146 67.567 61.8326C68.0644 61.8506 68.3895 61.8015 68.37 61.1538C68.3537 60.5944 68.2757 60.2754 67.6109 60.3033C66.5153 60.3491 65.4164 60.3392 64.3208 60.3033C63.7226 60.2853 63.4999 60.493 63.508 61.1113C63.5324 62.6832 63.5097 64.2567 63.5097 65.8286L63.5162 65.8302ZM26.5274 65.8646C26.5274 64.2616 26.5095 62.6586 26.5371 61.0557C26.5469 60.4864 26.3469 60.2902 25.7877 60.3049C24.6938 60.336 23.5965 60.336 22.5026 60.3049C21.932 60.2885 21.6719 60.4259 21.6654 61.0769C21.6589 61.7279 21.932 61.8719 22.4977 61.8326C22.9853 61.7983 23.4925 61.8326 23.9899 61.8326C24.6141 61.8326 25.0433 62.0927 25.0449 62.7535C25.0465 63.4143 24.6174 63.6908 23.9997 63.7006C23.382 63.7104 22.7383 63.7006 22.1092 63.7153C21.8946 63.7153 21.7126 63.7987 21.7093 64.0555C21.7061 64.3123 21.8832 64.3826 22.1011 64.4023C22.2636 64.4121 22.4262 64.4121 22.5985 64.4137C23.2064 64.4137 23.6713 64.6656 23.6859 65.3215C23.7038 66.0216 23.2633 66.3635 22.5871 66.2866C21.7158 66.1884 21.7288 66.6873 21.9288 67.2516C22.5968 69.1539 23.8306 70.4968 25.7796 71.1298C26.3356 71.3098 26.5534 71.2198 26.5404 70.5819C26.503 69.0035 26.5241 67.4332 26.5209 65.8629L26.5274 65.8646Z" fill="#212121"/>
<path d="M28.4667 79.13L28.4325 56.0488C28.4325 55.8477 28.4325 55.6465 28.4325 55.4469C28.4553 54.912 28.3675 54.4262 27.7921 54.2234C27.2167 54.0206 26.8444 54.3379 26.5291 54.7697C26.0414 55.9147 26.1568 57.0777 26.451 58.2423C25.3441 58.6757 24.1948 58.3764 23.0667 58.4239C21.6752 58.4811 21.646 58.4369 21.6834 56.9975C21.7078 56.0767 21.264 54.845 21.8817 54.3216C22.4132 53.8717 23.5966 54.1907 24.4923 54.1874C26.1178 54.1793 26.2657 54.0419 26.2674 52.434C26.2674 51.7993 26.2478 51.1631 26.2674 50.5284C26.3015 49.6419 25.9 49.228 25.0206 49.2411C24.0908 49.2542 23.161 49.2411 22.2295 49.2411C21.9727 49.2411 21.6655 49.2951 21.672 48.878C21.698 47.0788 21.4265 45.2484 22.4262 43.598C22.7513 43.0599 23.0602 42.5021 23.6389 42.1782C23.7624 42.4874 23.8616 42.808 24.0095 43.1024C26.3616 47.7772 30.0792 50.975 34.7932 53.0179C40.3915 55.4453 46.1849 55.7479 52.0319 54.1629C57.071 52.7971 61.2665 50.0459 64.433 45.7947C65.2458 44.6972 65.7074 43.3903 66.5462 42.3173C67.8125 43.4623 68.3473 44.918 68.344 46.6077C68.344 50.252 68.3278 53.8979 68.3587 57.5439C68.3587 58.2096 68.2449 58.4975 67.5053 58.4533C66.4129 58.3862 65.3124 58.4042 64.2168 58.4533C63.6414 58.4762 63.4675 58.2799 63.5 57.7189C63.5439 56.9845 63.5081 56.2468 63.5114 55.5107C63.5114 54.8155 63.3829 54.1744 62.5263 54.1923C61.6696 54.2103 61.5835 54.863 61.5851 55.5516C61.5851 62.7759 61.5851 70.0001 61.5851 77.2244C61.5851 77.859 61.564 78.4937 61.5526 79.1283C59.0103 78.6196 56.455 78.2892 53.8671 78.7341C52.2286 79.13 51.0095 79.4942 49.3904 80.4941L46.037 83.6019C46.011 83.1407 46.1443 79.4064 46.1215 78.9435C46.0906 78.2892 45.8273 77.8149 45.1186 77.8476C44.4846 77.877 44.2083 78.3072 44.2115 78.9321C44.2115 79.3982 44.3741 83.1358 44.3659 83.6019L40.6126 80.3306C40.6137 80.2474 40.4257 80.1662 40.3774 80.0987C40.3291 80.0313 40.2605 79.9812 40.1818 79.956C37.6249 78.809 34.9792 78.3469 32.1924 78.6147C30.9411 78.7087 29.6968 78.8807 28.4667 79.13ZM59.3663 72.7034C59.1436 72.4204 58.8282 72.5038 58.5421 72.5022C56.8982 72.4956 55.2537 72.4956 53.6087 72.5022C53.3242 72.5022 53.0089 72.4204 52.7829 72.6985C52.1327 72.8146 51.4825 72.9847 51.5881 73.8434C51.6938 74.7022 52.3651 74.6973 53.0235 74.694C54.9741 74.6864 56.9247 74.6864 58.8754 74.694C59.4671 74.694 60.0295 74.6629 60.2116 73.9596C60.3936 73.2562 59.9092 72.9438 59.3663 72.7034ZM30.4514 72.7475C29.9638 73.0518 29.6241 73.4411 29.8468 74.0561C30.0516 74.6286 30.5409 74.6907 31.0675 74.6875C33.0875 74.6798 35.108 74.6798 37.1291 74.6875C37.6899 74.6875 38.2215 74.6368 38.41 74.0021C38.6165 73.3069 38.1727 72.9618 37.6233 72.7034C37.5594 72.6268 37.4773 72.5677 37.3847 72.5317C37.292 72.4957 37.1918 72.4838 37.0933 72.4973H31.0545C30.8172 72.5005 30.5799 72.4907 30.4514 72.7475ZM30.64 78.1109C30.7831 78.178 30.9261 78.3023 31.0691 78.304C33.1482 78.3154 35.2289 78.304 37.3079 78.304C37.5144 78.304 37.7045 78.2712 37.7956 78.0521C38.2735 77.738 38.623 77.3454 38.384 76.7288C38.1662 76.1694 37.6753 76.1105 37.147 76.1138C35.1248 76.1236 33.1027 76.1236 31.0805 76.1138C30.5165 76.1138 29.9947 76.1776 29.8191 76.822C29.6306 77.5385 30.0792 77.8656 30.64 78.1109ZM47.4414 62.8451C47.6934 63.3047 48.0087 63.6384 48.5956 63.6351C51.4223 63.6237 54.2475 63.6351 57.0743 63.6351C57.8529 63.6351 58.2219 63.236 58.2122 62.4444C58.1959 61.5066 58.1959 60.5699 58.2122 59.6343C58.2284 58.7968 57.861 58.414 57.0141 58.4189C54.2551 58.4353 51.4955 58.4353 48.7353 58.4189C48.1794 58.4189 47.76 58.5711 47.5016 59.0732C47.2496 59.1517 47.1765 59.2695 47.4171 59.4576C47.4171 59.5885 47.4171 59.7193 47.4171 59.8502C47.0919 60.2558 47.0919 60.6598 47.4171 61.0655C47.5081 61.322 47.5081 61.6023 47.4171 61.8588C47.1147 62.1908 47.0708 62.5229 47.4414 62.8451ZM41.0336 61.2667C41.0333 60.6291 40.8453 60.0059 40.4933 59.4757C40.1414 58.9455 39.6412 58.5322 39.056 58.2877C38.4708 58.0433 37.8268 57.9788 37.2051 58.1023C36.5835 58.2258 36.0122 58.5318 35.5632 58.9818C35.1143 59.4317 34.8079 60.0053 34.6826 60.6303C34.5573 61.2553 34.6189 61.9037 34.8594 62.4935C35.1 63.0834 35.5087 63.5883 36.0342 63.9446C36.5596 64.3009 37.1782 64.4926 37.8118 64.4955C38.2351 64.5001 38.655 64.4198 39.0471 64.2593C39.4392 64.0988 39.7956 63.8614 40.0955 63.5608C40.3954 63.2602 40.6328 62.9026 40.7939 62.5087C40.9549 62.1148 41.0364 61.6926 41.0336 61.2667ZM55.9641 76.1269C54.901 76.1269 53.8379 76.1269 52.7748 76.1269C52.0839 76.1269 51.5621 76.3591 51.5833 77.1344C51.6028 77.8574 52.1311 78.0602 52.7634 78.0602H59.0412C59.7223 78.0602 60.2652 77.8231 60.2359 77.0461C60.2083 76.3428 59.7044 76.117 59.0542 76.1252C58.0252 76.135 56.9946 76.1269 55.9641 76.1269Z" fill="#FDFDFD"/>
<path d="M45.8142 83.597C49.14 79.9032 51.6596 79.1234 53.8671 78.7292C56.4549 78.2843 59.0102 78.6147 61.5525 79.1234C61.5525 79.5242 61.5525 81.5606 61.5607 81.9613L57.7553 81.1299H54.0166L50.1153 83.0927L45.9703 86.6912L45.8142 83.597Z" fill="#00A94E"/>
<path d="M28.4668 79.1299C29.7012 78.8802 30.9499 78.7081 32.2056 78.6147C34.9898 78.3465 37.7957 78.8068 40.3511 79.9511C40.4298 79.9763 42.4756 80.9663 44.4479 83.5287C44.4479 85.628 44.4262 85.2191 44.345 86.6912L40.9314 83.4199L35.7297 81.3752L31.991 81.1299L28.4441 82.2884C28.4538 81.8893 28.4538 79.5274 28.4668 79.1299Z" fill="#00A94E"/>
<path d="M44.2034 88.5041C44.2034 88.0379 44.2131 79.3933 44.2115 78.9271C44.2115 78.3023 44.4846 77.8721 45.1185 77.8427C45.8273 77.81 46.0939 78.2892 46.1215 78.9386C46.1442 79.4015 46.1735 88.0428 46.1995 88.5041H44.2034Z" fill="#212121"/>
<path d="M44.9901 43.9971C42.5514 43.9934 40.1374 43.5058 37.8863 42.5622C35.6352 41.6185 33.5911 40.2373 31.8712 38.4976C30.1513 36.758 28.7892 34.6941 27.8631 32.424C26.9369 30.154 26.4648 27.7224 26.4738 25.2685C26.4965 15.0913 34.8517 6.71821 44.9869 6.71494C55.1919 6.71494 63.5455 15.0864 63.5438 25.3159C63.5483 27.7695 63.0716 30.1998 62.1409 32.4676C61.2102 34.7354 59.8439 36.7961 58.1203 38.5315C56.3967 40.267 54.3496 41.6431 52.0965 42.581C49.8433 43.5189 47.4284 44.0001 44.9901 43.9971ZM29.416 25.2669C29.455 25.5139 29.6533 25.5122 29.798 25.5547C31.9306 26.1796 34.0877 26.685 36.3114 26.8633C40.8288 27.2084 45.1722 26.6016 49.1791 24.3443C52.687 22.3668 55.3154 19.4913 57.3587 16.0367C57.6334 15.5689 57.5213 15.2761 57.2059 14.9064C55.2705 12.6584 52.7613 10.9853 49.9496 10.0681C48.09 9.45144 48.0818 9.47597 47.2057 10.7109C43.519 15.8977 38.7904 19.91 33.3546 23.1176C32.0656 23.8733 30.7294 24.5537 29.416 25.2669ZM61.0324 25.2849C60.9658 22.653 60.4212 20.4367 59.4069 18.3381C58.9485 17.3976 58.7941 17.396 58.2186 18.2743C53.5322 25.4288 46.9489 28.9962 38.4181 28.8834C37.4558 28.8719 36.4447 29.0617 35.5426 28.8261C33.8423 28.3812 32.0867 28.234 30.401 27.7335C30.0304 27.6239 29.4517 27.444 29.2502 27.897C29.0486 28.3501 29.2697 28.8785 29.5948 29.2857C29.708 29.4079 29.8339 29.5176 29.9703 29.6129C31.4317 30.8207 33.0073 31.8813 34.6745 32.7796C39.135 35.1251 43.7921 36.2047 48.8068 35.0384C53.2591 34.0031 56.7443 31.4154 59.8116 28.1375C60.639 27.2428 61.3445 26.3268 61.0324 25.2849ZM44.1367 41.5141C47.9356 41.5566 50.764 40.7568 53.3551 39.1669C55.9133 37.6064 57.9786 35.3472 59.311 32.652C59.4605 32.3559 59.9124 31.9028 59.4735 31.5953C59.1387 31.3647 58.8396 31.8145 58.5681 32.0484C58.4429 32.158 58.3162 32.266 58.1894 32.3756C53.8801 35.961 49.0133 37.8322 43.3483 37.402C41.5814 37.2679 39.8031 36.9931 38.1873 36.4288C36.1733 35.7254 34.1056 34.9714 32.3517 33.6481C32.0265 33.4077 31.5096 33.0773 31.3308 33.2686C30.97 33.6563 31.4722 34.0521 31.6982 34.376C34.8972 38.9723 39.2991 41.3653 44.1367 41.5141ZM29.2664 23.1585C35.8644 19.8364 41.5196 15.492 45.8321 9.35984C37.9532 8.79226 30.0109 14.8328 29.2664 23.1585Z" fill="#FDFDFD"/>
<path d="M45.0097 1.94693C56.6452 1.95838 66.4032 10.4754 68.0922 22.1215C68.1117 22.2539 68.1198 22.3881 68.1312 22.5222C68.3019 24.5521 68.3035 24.5357 66.2098 24.4507C65.6051 24.4245 65.371 24.2593 65.3255 23.5887C64.7696 15.4348 58.8608 8.06275 51.0485 5.71555C41.1475 2.7386 30.8319 7.35123 26.4706 16.7401C25.4378 18.9162 24.8265 21.2705 24.6695 23.677C24.6321 24.3051 24.4013 24.4441 23.8275 24.4556C21.6233 24.4981 21.5664 24.4556 21.9094 22.2196C23.4309 12.3532 30.0549 5.0122 39.6731 2.55868C40.5094 2.34314 41.3594 2.18574 42.2171 2.0876C43.1469 1.98455 44.0815 1.98946 45.0097 1.94693Z" fill="#00A94E"/>
<path d="M45.5218 48.8028C33.2865 48.7668 23.3285 39.9439 21.8981 28.3567C21.6445 26.3007 21.6445 26.3203 23.7186 26.3088C24.3429 26.3088 24.6419 26.3874 24.694 27.1447C25.2158 35.1595 31.144 42.6166 38.7954 44.9507C49.5905 48.245 60.6116 42.6804 64.3421 32.0288C64.9046 30.421 65.3044 28.7575 65.3516 27.04C65.3662 26.4708 65.5678 26.2827 66.1205 26.3088C68.6416 26.4217 68.4352 25.7625 68.0825 28.553C66.7837 38.7613 58.4805 47.1671 48.4478 48.5607C47.2904 48.721 46.1233 48.7537 45.5218 48.8028Z" fill="#00A94E"/>
<path d="M66.5446 42.3189C65.6993 43.3919 65.2442 44.6988 64.4314 45.7964C61.2649 50.0492 57.0726 52.7987 52.0303 54.1645C46.1784 55.7479 40.3899 55.4453 34.7997 53.0196C30.0857 50.9766 26.3762 47.7854 24.0322 43.104C23.8843 42.8096 23.7852 42.489 23.6616 42.1799C23.7657 41.91 24.0274 41.8086 24.2273 41.6401C24.8629 41.1069 25.2936 41.1036 25.9178 41.8331C35.8433 53.4465 53.5599 53.6869 63.7015 42.3762C65.028 40.8844 65.08 40.8828 66.5446 42.3189Z" fill="#00A94E"/>
<path d="M63.5097 65.8286C63.5097 64.2567 63.5325 62.6832 63.4984 61.1129C63.4853 60.4946 63.708 60.2869 64.3111 60.3049C65.4067 60.3359 66.5056 60.3458 67.6012 60.3049C68.266 60.2771 68.344 60.596 68.3603 61.1554C68.3798 61.8097 68.0482 61.8571 67.5573 61.8342C67.0664 61.8113 66.5592 61.8342 66.0618 61.8342C65.4474 61.8261 64.9955 62.0534 64.9776 62.7257C64.9597 63.4519 65.4392 63.7071 66.0878 63.7071C66.6535 63.7071 67.2176 63.7071 67.7832 63.7071C68.0531 63.7071 68.357 63.6973 68.3278 64.0997C68.305 64.4366 68.0271 64.3941 67.8011 64.4039C67.6012 64.4137 67.3996 64.3941 67.2029 64.4219C66.6795 64.4939 66.3235 64.7883 66.3251 65.3362C66.3251 65.9169 66.6502 66.2359 67.2549 66.2915C68.3164 66.3913 68.3847 66.527 67.9962 67.5428C67.6993 68.3629 67.2242 69.1061 66.6055 69.7179C65.9868 70.3297 65.2402 70.7948 64.42 71.0791C63.8153 71.3032 63.4545 71.3032 63.4902 70.4461C63.552 68.9102 63.5065 67.3694 63.5065 65.8318L63.5097 65.8286Z" fill="#00A94E"/>
<path d="M26.5226 65.8629C26.5226 67.4331 26.5031 69.0034 26.534 70.5736C26.547 71.2116 26.3292 71.3015 25.7733 71.1216C23.8226 70.4886 22.5905 69.1457 21.9224 67.2434C21.7224 66.6791 21.7094 66.1802 22.5807 66.2783C23.2569 66.3552 23.6975 66.0134 23.6796 65.3133C23.6649 64.659 23.2 64.412 22.5921 64.4055C22.4295 64.4055 22.2589 64.4055 22.0947 64.394C21.8769 64.381 21.6997 64.3057 21.7029 64.0473C21.7062 63.7888 21.8882 63.7103 22.1028 63.707C22.7319 63.6972 23.3626 63.707 23.9933 63.6923C24.624 63.6776 25.0385 63.3995 25.0385 62.7453C25.0385 62.091 24.6078 61.8195 23.9835 61.8244C23.4861 61.8244 22.9855 61.7966 22.4913 61.8244C21.9256 61.8636 21.6525 61.7311 21.659 61.0687C21.6656 60.4062 21.9256 60.2803 22.4962 60.2966C23.5902 60.3277 24.6874 60.3277 25.7814 60.2966C26.3406 60.2819 26.5405 60.4782 26.5307 61.0474C26.5031 62.6569 26.521 64.2599 26.5226 65.8629Z" fill="#00A94E"/>
<path d="M23.078 52.2017C22.605 52.0594 21.7174 52.7529 21.7158 51.711C21.7142 50.669 22.5904 51.3315 23.0748 51.2203C23.0748 51.5539 23.0764 51.8778 23.078 52.2017Z" fill="#FF4F3A"/>
<path d="M23.0779 52.2017C23.0779 51.8746 23.0779 51.5474 23.0779 51.2285C23.5477 51.3348 24.4108 50.7001 24.3783 51.7584C24.3328 52.7088 23.5314 52.0938 23.0779 52.2017Z" fill="#FF4F3A"/>
<path d="M26.4526 58.2423C26.1584 57.0777 26.0462 55.9164 26.5306 54.7698L26.4526 58.2423Z" fill="#FDFDFD"/>
<path d="M47.4154 59.842V59.4494C47.4446 59.3219 47.4723 59.1943 47.4999 59.0651C47.7632 58.5613 48.1777 58.4108 48.7337 58.4108C51.4938 58.4304 54.2534 58.4304 57.0125 58.4108C57.8594 58.4108 58.2267 58.7886 58.2105 59.6261C58.192 60.5617 58.192 61.4984 58.2105 62.4362C58.2251 63.2279 57.8561 63.6253 57.0726 63.627C54.2458 63.627 51.4207 63.627 48.5939 63.627C48.007 63.627 47.6917 63.2998 47.4397 62.8369C47.4322 62.5098 47.4229 62.1783 47.4121 61.8424C47.5031 61.5859 47.5031 61.3056 47.4121 61.0491C47.4137 60.6517 47.4154 60.2526 47.4154 59.842ZM52.882 60.2787C51.9538 60.2787 51.024 60.2951 50.0959 60.2787C49.631 60.2673 49.3384 60.3311 49.366 60.915C49.3871 61.3975 49.3887 61.7329 50.0373 61.7198C51.9278 61.6838 53.8199 61.6936 55.7104 61.7198C56.2891 61.728 56.3314 61.4286 56.3476 60.9723C56.3671 60.4554 56.1981 60.2558 55.6681 60.2755C54.74 60.3033 53.8118 60.2787 52.882 60.2787Z" fill="#212121"/>
<path d="M41.0335 61.2666C41.0403 61.6963 40.9618 62.123 40.8025 62.5217C40.6432 62.9204 40.4064 63.283 40.106 63.5884C39.8056 63.8938 39.4475 64.1357 39.0529 64.3C38.6584 64.4643 38.2351 64.5476 37.8081 64.5451C37.3811 64.5426 36.9588 64.4543 36.5662 64.2854C36.1735 64.1165 35.8183 63.8704 35.5214 63.5615C35.2245 63.2526 34.992 62.8872 34.8373 62.4867C34.6827 62.0861 34.6091 61.6585 34.6208 61.229C34.644 60.3856 34.9944 59.5848 35.5972 58.9982C36.1999 58.4116 37.007 58.0859 37.8455 58.0908C38.684 58.0957 39.4872 58.4309 40.0831 59.0245C40.679 59.6181 41.0202 60.423 41.0335 61.2666ZM39.1382 61.2339C39.1252 60.5142 38.4782 59.8665 37.776 59.9433C37.0266 60.0235 36.5666 60.4439 36.5568 61.2519C36.5519 61.4265 36.5814 61.6005 36.6436 61.7636C36.7059 61.9267 36.7997 62.0757 36.9195 62.2022C37.0394 62.3286 37.183 62.4298 37.342 62.5C37.501 62.5702 37.6723 62.608 37.8459 62.6112C38.1959 62.5927 38.5254 62.4393 38.766 62.1828C39.0066 61.9264 39.1399 61.5866 39.1382 61.2339Z" fill="#212121"/>
<path d="M30.6399 78.1109C30.0856 77.8655 29.6304 77.5384 29.8271 76.8301C30.0027 76.1857 30.5245 76.1203 31.0885 76.1219C33.1107 76.1306 35.1329 76.1306 37.155 76.1219C37.6833 76.1219 38.1742 76.1775 38.392 76.7369C38.631 77.3536 38.2815 77.7461 37.8036 78.0602L30.6399 78.1109Z" fill="#212121"/>
<path d="M55.9639 76.1269C56.9945 76.1269 58.0251 76.1351 59.0524 76.1269C59.7026 76.1269 60.2065 76.3444 60.2342 77.0478C60.2634 77.8247 59.7205 78.0603 59.0394 78.0619H52.7633C52.1309 78.0619 51.6026 77.8591 51.5831 77.1361C51.562 76.3608 52.0838 76.1252 52.7746 76.1285C53.8377 76.1318 54.9008 76.1269 55.9639 76.1269Z" fill="#212121"/>
<path d="M37.6232 72.7066C38.1726 72.9651 38.6164 73.3102 38.4099 74.0054C38.2214 74.64 37.6898 74.694 37.129 74.6907C35.108 74.6831 33.0874 74.6831 31.0675 74.6907C30.5408 74.6907 30.0515 74.6318 29.8467 74.0593C29.624 73.441 29.9653 73.0518 30.4514 72.7508L37.6232 72.7066Z" fill="#212121"/>
<path d="M59.3659 72.7034C59.9088 72.9438 60.3949 73.2399 60.2079 73.9563C60.021 74.6728 59.4635 74.694 58.8718 74.6907C56.9211 74.6809 54.9705 74.6809 53.0199 74.6907C52.3697 74.6907 51.6886 74.6907 51.5845 73.8402C51.4805 72.9896 52.1291 72.8146 52.7793 72.6952L59.3659 72.7034Z" fill="#212121"/>
<path d="M37.6232 72.7066L30.4514 72.7475C30.5798 72.4907 30.8172 72.5005 31.0496 72.5005H37.0933C37.1917 72.4871 37.292 72.4989 37.3846 72.535C37.4773 72.571 37.5594 72.6301 37.6232 72.7066Z" fill="#FDFDFD"/>
<path d="M30.6401 78.1109L37.8006 78.0602C37.7047 78.2794 37.5145 78.3121 37.3129 78.3121C35.2339 78.3121 33.1532 78.3121 31.0742 78.3121C30.9262 78.3023 30.7832 78.178 30.6401 78.1109Z" fill="#FDFDFD"/>
<path d="M59.3663 72.7034H52.783C53.0089 72.4253 53.3243 72.5087 53.6087 72.5071C55.2538 72.5005 56.8982 72.5005 58.5422 72.5071C58.8283 72.5038 59.1436 72.4204 59.3663 72.7034Z" fill="#FDFDFD"/>
<path d="M47.4155 59.842C47.4155 60.2477 47.4155 60.6517 47.4155 61.0573C47.0904 60.6517 47.0871 60.2526 47.4155 59.842Z" fill="#FDFDFD"/>
<path d="M47.4136 61.8506C47.4234 62.1777 47.4326 62.5092 47.4413 62.8451C47.0706 62.5228 47.1145 62.1908 47.4136 61.8506Z" fill="#FDFDFD"/>
<path d="M47.4981 59.065C47.4704 59.1943 47.4428 59.3218 47.4135 59.4494C47.1664 59.2613 47.2461 59.1435 47.4981 59.065Z" fill="#FDFDFD"/>
<path d="M29.416 25.2669C30.7262 24.5538 32.0656 23.8733 33.3547 23.1111C38.7904 19.9035 43.5191 15.8912 47.2057 10.7044C48.0819 9.46948 48.09 9.44494 49.9496 10.0616C52.7614 10.9788 55.2706 12.6519 57.206 14.8999C57.5311 15.2696 57.6335 15.5624 57.3588 16.0302C55.3155 19.4848 52.687 22.3603 49.1791 24.3378C45.1722 26.5951 40.8288 27.2019 36.3115 26.8568C34.0878 26.685 31.9226 26.1796 29.798 25.5482C29.6533 25.5123 29.455 25.5139 29.416 25.2669Z" fill="#FF4F3A"/>
<path d="M61.0325 25.2849C61.3446 26.3268 60.6456 27.2477 59.8052 28.1392C56.7378 31.4105 53.2527 34.0047 48.8004 35.0401C43.7856 36.2064 39.1285 35.1268 34.6681 32.7812C33.0009 31.883 31.4252 30.8224 29.9638 29.6145C29.8274 29.5192 29.7016 29.4096 29.5883 29.2874C29.2632 28.8785 29.0454 28.3469 29.2437 27.8987C29.442 27.4505 30.024 27.6239 30.3946 27.7351C32.0802 28.2357 33.8358 28.3894 35.5361 28.8278C36.4383 29.0633 37.4494 28.8736 38.4117 28.885C46.9424 28.9979 53.529 25.4305 58.2122 18.276C58.7876 17.3976 58.942 17.3993 59.4004 18.3398C60.4213 20.4367 60.9642 22.6531 61.0325 25.2849Z" fill="#FF4F3A"/>
<path d="M44.1365 41.5142C39.2989 41.3653 34.897 38.9723 31.6915 34.3695C31.4655 34.0424 30.9633 33.6498 31.3241 33.2621C31.5029 33.0708 32.0263 33.4012 32.345 33.6416C34.0989 34.9682 36.1666 35.7222 38.1806 36.4223C39.7964 36.9866 41.5747 37.2614 43.3416 37.3955C49.0066 37.8257 53.8734 35.9545 58.1827 32.3691C58.3094 32.2627 58.4362 32.1548 58.5614 32.0419C58.8329 31.808 59.132 31.3582 59.4668 31.5888C59.9122 31.8963 59.4668 32.3494 59.3043 32.6455C57.9719 35.3407 55.9065 37.5999 53.3483 39.1604C50.7638 40.7568 47.9354 41.5567 44.1365 41.5142Z" fill="#FF4F3A"/>
<path d="M29.2661 23.1585C30.009 14.8329 37.9513 8.7923 45.8318 9.35988C41.5209 15.4921 35.8657 19.8364 29.2661 23.1585Z" fill="#FF4F3A"/>
<path d="M52.8818 60.2788C53.81 60.2788 54.7398 60.3033 55.668 60.2706C56.1979 60.251 56.3669 60.4505 56.3474 60.9674C56.3312 61.4237 56.2889 61.7231 55.7102 61.7149C53.8197 61.6871 51.9276 61.6773 50.0372 61.7149C49.3869 61.7263 49.3869 61.3878 49.3658 60.9101C49.3382 60.3262 49.6308 60.2559 50.0957 60.2739C51.0239 60.2951 51.9536 60.2788 52.8818 60.2788Z" fill="#00A94E"/>
<path d="M39.1381 61.2339C39.1397 61.5879 39.0053 61.9289 38.763 62.1855C38.5207 62.4422 38.1891 62.5947 37.8377 62.6111C37.6641 62.6079 37.4928 62.5702 37.3338 62.5C37.1748 62.4298 37.0312 62.3285 36.9113 62.2021C36.7914 62.0757 36.6977 61.9266 36.6354 61.7635C36.5732 61.6004 36.5437 61.4265 36.5486 61.2519C36.5584 60.4438 37.0184 60.0235 37.7678 59.9433C38.4781 59.873 39.1251 60.5207 39.1381 61.2339Z" fill="#00A94E"/>
<path fill-rule="evenodd" clip-rule="evenodd" d="M23.5378 86.9417H43.8569C41.9624 82.6945 38.1241 79.7893 33.6974 79.7893C29.2707 79.7893 25.4323 82.6945 23.5378 86.9417Z" fill="#FDFDFD"/>
<path fill-rule="evenodd" clip-rule="evenodd" d="M21.75 86.9416L21.9051 86.2132C24.0302 81.449 28.4353 78.0012 33.6976 78.0012C38.9599 78.0012 43.365 81.449 45.4901 86.2132L45.1575 86.9416H21.75ZM43.8571 86.9416C43.5775 86.3146 43.2555 85.7169 42.8955 85.1535C40.8166 81.9 37.4709 79.7893 33.6976 79.7893C29.9243 79.7893 26.5786 81.9 24.4997 85.1535C24.1397 85.7169 23.8177 86.3146 23.5381 86.9416H43.8571Z" fill="#212121"/>
<path fill-rule="evenodd" clip-rule="evenodd" d="M46.458 86.9417H66.7771C64.8826 82.6945 61.0443 79.7893 56.6175 79.7893C52.1908 79.7893 48.3525 82.6945 46.458 86.9417Z" fill="#FDFDFD"/>
<path fill-rule="evenodd" clip-rule="evenodd" d="M45.1573 86.9416L44.8247 86.2132C46.9498 81.449 51.3549 78.0012 56.6172 78.0012C61.8795 78.0012 66.2846 81.449 68.4097 86.2132L68.5648 86.9416H45.1573ZM66.7767 86.9416C66.4971 86.3146 66.1751 85.7169 65.8151 85.1535C63.7362 81.9 60.3905 79.7893 56.6172 79.7893C52.8439 79.7893 49.4982 81.9 47.4194 85.1535C47.0594 85.7169 46.7373 86.3146 46.4577 86.9416H66.7767Z" fill="#212121"/>
<path d="M23.5378 88.7297H43.8569V90.6803H23.5378V88.7297Z" fill="#00A94E"/>
<path fill-rule="evenodd" clip-rule="evenodd" d="M21.75 86.9416H45.6452V92.4684H21.75V86.9416ZM23.5381 88.7297V90.6803H43.8571V88.7297H23.5381Z" fill="#212121"/>
<path d="M46.458 88.7297H66.7771V90.6803H46.458V88.7297Z" fill="#00A94E"/>
<path fill-rule="evenodd" clip-rule="evenodd" d="M44.6697 86.9416H68.5649V92.4684H44.6697V86.9416ZM46.4578 88.7297V90.6803H66.7768V88.7297H46.4578Z" fill="#212121"/>
</svg>
